<?xml version="1.0" encoding="utf-8"?>
<svg id="Group_2882" data-name="Group 2882" xmlns="http://www.w3.org/2000/svg" width="246.086" height="281.75" viewBox="0 0 246.086 281.75">
  <path id="Path_1879" data-name="Path 1879" d="M639.291,308.548l-91.7-11.559c-4.156-34.571,2.123-68.321,12.843-101.885l91.7,11.559A188.575,188.575,0,0,0,639.291,308.548Z" transform="translate(-410.448 -144.785)" fill="#fff" stroke="#c2d2d5" stroke-width="1"/>
  <rect id="Rectangle_1044" data-name="Rectangle 1044" width="56.48" height="6.068" transform="matrix(0.992, 0.125, -0.125, 0.992, 162.802, 62.519)" fill="#4cbac0"/>
  <g id="Group_2885" data-name="Group 2885" transform="translate(145.792 75.706)">
    <rect id="Rectangle_1045" data-name="Rectangle 1045" width="76.552" height="3.034" transform="matrix(0.992, 0.125, -0.125, 0.992, 4.057, 0)" fill="#c2d2d5" opacity="0.3"/>
    <rect id="Rectangle_1046" data-name="Rectangle 1046" width="76.552" height="3.034" transform="matrix(0.992, 0.125, -0.125, 0.992, 2.831, 9.725)" fill="#c2d2d5" opacity="0.3"/>
    <rect id="Rectangle_1047" data-name="Rectangle 1047" width="76.552" height="3.034" transform="matrix(0.992, 0.125, -0.125, 0.992, 1.606, 19.451)" fill="#c2d2d5" opacity="0.3"/>
    <rect id="Rectangle_1048" data-name="Rectangle 1048" width="76.552" height="3.034" transform="matrix(0.992, 0.125, -0.125, 0.992, 0.379, 29.176)" fill="#c2d2d5" opacity="0.3"/>
  </g>
  <rect id="Rectangle_1049" data-name="Rectangle 1049" width="76.552" height="3.034" transform="matrix(0.992, 0.125, -0.125, 0.992, 144.945, 114.608)" fill="#6c63ff" opacity="0.3"/>
  <rect id="Rectangle_1050" data-name="Rectangle 1050" width="76.552" height="3.034" transform="matrix(0.992, 0.125, -0.125, 0.992, 143.719, 124.334)" fill="#6c63ff" opacity="0.3"/>
  <rect id="Rectangle_1051" data-name="Rectangle 1051" width="76.552" height="3.034" transform="matrix(0.992, 0.125, -0.125, 0.992, 142.494, 134.059)" fill="#6c63ff" opacity="0.3"/>
  <path id="Path_1880" data-name="Path 1880" d="M530.135,183.17l-85.788-34.385c4.727-34.5,19.342-65.561,38.206-95.32L568.34,87.85A188.575,188.575,0,0,0,530.135,183.17Z" transform="translate(-344.714 -53.465)" fill="#f2f2f2"/>
  <rect id="Rectangle_1052" data-name="Rectangle 1052" width="56.48" height="6.068" transform="translate(147.147 15.045) rotate(21.841)" fill="#4cbac0"/>
  <g id="Group_2879" data-name="Group 2879" transform="translate(108.268 24.525)">
    <rect id="Rectangle_1053" data-name="Rectangle 1053" width="76.552" height="3.034" transform="translate(23.01 0) rotate(21.841)" fill="#c2d2d5" opacity="0.3"/>
    <rect id="Rectangle_1054" data-name="Rectangle 1054" width="76.552" height="3.034" transform="translate(19.363 9.099) rotate(21.841)" fill="#c2d2d5" opacity="0.3"/>
    <rect id="Rectangle_1055" data-name="Rectangle 1055" width="76.552" height="3.034" transform="translate(15.717 18.198) rotate(21.841)" fill="#c2d2d5" opacity="0.3"/>
    <rect id="Rectangle_1056" data-name="Rectangle 1056" width="76.552" height="3.034" transform="translate(12.07 27.296) rotate(21.841)" fill="#c2d2d5" opacity="0.3"/>
    <rect id="Rectangle_1057" data-name="Rectangle 1057" width="76.552" height="3.034" transform="translate(8.422 36.395) rotate(21.841)" fill="#c2d2d5" opacity="0.3"/>
    <rect id="Rectangle_1058" data-name="Rectangle 1058" width="76.552" height="3.034" transform="translate(4.776 45.494) rotate(21.841)" fill="#c2d2d5" opacity="0.3"/>
    <rect id="Rectangle_1059" data-name="Rectangle 1059" width="76.552" height="3.034" transform="translate(1.129 54.592) rotate(21.841)" fill="#c2d2d5" opacity="0.3"/>
  </g>
  <path id="Path_1881" data-name="Path 1881" d="M448.2,255.5H355.778c-8.447-33.78-6.438-68.05,0-102.691H448.2A188.574,188.574,0,0,0,448.2,255.5Z" transform="translate(-283.996 -117.518)" fill="#fff" stroke="#c2d2d5" stroke-width="1"/>
  <rect id="Rectangle_1060" data-name="Rectangle 1060" width="56.48" height="6.068" transform="translate(86.02 45.797)" fill="#4cbac0"/>
  <g id="Group_2884" data-name="Group 2884" transform="translate(74.817 60.501)">
    <rect id="Rectangle_1061" data-name="Rectangle 1061" width="76.552" height="3.034" fill="#c2d2d5" opacity="0.3"/>
    <rect id="Rectangle_1062" data-name="Rectangle 1062" width="76.552" height="3.034" transform="translate(0 9.802)" fill="#c2d2d5" opacity="0.3"/>
    <rect id="Rectangle_1063" data-name="Rectangle 1063" width="76.552" height="3.034" transform="translate(0 19.605)" fill="#c2d2d5" opacity="0.3"/>
    <rect id="Rectangle_1064" data-name="Rectangle 1064" width="76.552" height="3.034" transform="translate(0 29.407)" fill="#c2d2d5" opacity="0.3"/>
    <rect id="Rectangle_1065" data-name="Rectangle 1065" width="76.552" height="3.034" transform="translate(0 39.209)" fill="#c2d2d5" opacity="0.3"/>
    <rect id="Rectangle_1066" data-name="Rectangle 1066" width="76.552" height="3.034" transform="translate(0 49.012)" fill="#c2d2d5" opacity="0.3"/>
  </g>
  <rect id="Rectangle_1067" data-name="Rectangle 1067" width="76.552" height="3.034" transform="translate(74.817 119.315)" fill="#6c63ff" opacity="0.3"/>
  <path id="Path_1882" data-name="Path 1882" d="M349.463,335.931l-31.841-24.754a3.635,3.635,0,0,0-3.151-1.823H297.287a3.635,3.635,0,0,0-3.635,3.635V464.666a11.789,11.789,0,0,0,11.79,11.789H481.853a11.79,11.79,0,0,0,11.79-11.789V346.647a10.716,10.716,0,0,0-10.716-10.716Z" transform="translate(-247.556 -218.446)" fill="#333"/>
  <rect id="Rectangle_1068" data-name="Rectangle 1068" width="31.998" height="11.199" transform="translate(208.089 152.661)" fill="#4cbac0"/>
  <path id="Path_1884" data-name="Path 1884" d="M219.748,301.538s1.571,8.325.471,8.953a19.091,19.091,0,0,0-2.513,1.885l2.827,3.927,6.754,1.414,6.44-5.969v-5.969s-1.885-2.984-1.571-4.869S219.748,301.538,219.748,301.538Z" transform="translate(-198.591 -212.549)" fill="#edf1f2"/>
  <path id="Path_1886" data-name="Path 1886" d="M181.059,344.183l-.942.471s-2.042.785-2.984,7.539-3.141,22.932-2.513,23.4.314,3.613.314,3.613l4.712-24.66Z" transform="translate(-170.74 -240.901)" fill="#4cbac0"/>
  <path id="Path_1887" data-name="Path 1887" d="M212.03,233.591c-.144.3-.194.65-.329.955-.612,1.387-2.355,1.077-3.612,1.6a3.49,3.49,0,0,0-1.942,2.983c-.035.56.047,1.124,0,1.682-.093,1.031-.625,1.939-.814,2.952-.46,2.461.613,6.346,1.824,5.018.382-.419.86-.7,1.272-1.073,1.071-.979,1.617-2.535,2.487-3.757a1.313,1.313,0,0,1,.442-.438c.636-.316,1.2.53,1.7,1.084a2.669,2.669,0,0,0,4-.076,2.349,2.349,0,0,1,.564-.576,1.2,1.2,0,0,1,.784-.077,5.147,5.147,0,0,1,3.138,1.869,9.489,9.489,0,0,0,1.274,1.516,1.258,1.258,0,0,0,1.69.056,4.009,4.009,0,0,1,1.254,3.26c0,1.246-.253,2.485-.191,3.729a3.486,3.486,0,0,0,1.542,3.043,4.432,4.432,0,0,1,1.641-2.871,11.28,11.28,0,0,0,2.067-1.408c1.143-1.313.781-3.5.825-5.371.054-2.311.855-4.52,1-6.826a4.342,4.342,0,0,0-2.363-4.779l-5.391-3.459a2.3,2.3,0,0,0-.8-.379c-.794-.142-1.48.6-2.232.93a4.519,4.519,0,0,1-1.959.238c-2.093-.057-2.682.35-4.089-1.014a.992.992,0,0,0-.85-.284C214.125,232.253,212.49,232.63,212.03,233.591Z" transform="translate(-190.541 -168.643)" fill="#2f2e41"/>
  <path id="Path_1888" data-name="Path 1888" d="M85.824,716.92l3.3,7.225-6.44,2.2-3.3-1.728.785-7.7Z" transform="translate(-61.368 -462.223)" fill="#edf1f2"/>
  <path id="Path_1889" data-name="Path 1889" d="M186.834,783.5s-5.183-3.141-6.126-2.042-8.482,9.11-8.482,9.11-11.623,6.283-2.67,7.225,23.56-5.5,23.56-5.5.785-8.482.157-8.639-3.3,1.414-4.555.942a5.632,5.632,0,0,1-1.885-1.1Z" transform="translate(-165.363 -522.676)" fill="#2f2e41"/>
  <path id="Path_1890" data-name="Path 1890" d="M105.993,734.878v6.44l-8.482-1.885,1.885-6.6Z" transform="translate(-73.055 -472.485)" fill="#edf1f2"/>
  <path id="Path_1891" data-name="Path 1891" d="M227.711,797.828s8.639-1.414,9.424,2.827,2.827,10.524.785,12.094-12.566,3.613-12.723.942,1.1-7.853,1.1-7.853.785-4.084.314-5.183S227.711,797.828,227.711,797.828Z" transform="translate(-203.412 -533.236)" fill="#2f2e41"/>
  <path id="Path_1892" data-name="Path 1892" d="M177.253,499.639s-7.091,44.962-1.28,66.952,9.9,35.026,9.9,35.026,10.052-2.827,10.052-4.712-3.927-29.843-4.869-32.513-2.513-3.613-1.1-5.812,3.77-16.335,3.77-16.335,5.183,23.4,5.5,24.032-3.3,36.6-3.3,36.6,10.368,7.524,10.995,1.885c.157-1.414,7.068-51.519,7.068-52.147s2.827-48.691-1.728-51.047S177.253,499.639,177.253,499.639Z" transform="translate(-170.209 -341.109)" fill="#333"/>
  <ellipse id="Ellipse_150" data-name="Ellipse 150" cx="10.681" cy="10.681" rx="10.681" ry="10.681" transform="translate(16.602 70.768)" fill="#edf1f2"/>
  <path id="Path_1893" data-name="Path 1893" d="M201,323.228v-1.1l-3.141-5.183s-3.141.314-3.613,1.728-5.812,12.723-5.812,12.723l-5.654,50.733s15.55,3.77,17.906,1.1,11.309-60.786,11.309-60.786l1.257-7.068s-2.158-3.141-2.65-2.67-8.659,9.581-8.659,9.581l-.157,1.414Z" transform="translate(-176.072 -220.575)" fill="#333"/>
  <path id="Path_1894" data-name="Path 1894" d="M185.608,321.6s-2.906-.707-3.848,1.021-.942,2.356-1.885,2.984-6.44,3.456-6.754,4.555-7.068,35.812-7.068,35.812-3.3,10.367-1.728,17.435.471,8.482,3.77,9.11,3.77.628,3.77-.314,4.241-32.827,7.225-35.026,2.2-26.231,2.2-26.231,4.241-5.183,4.241-5.969S186.236,321.537,185.608,321.6Z" transform="translate(-163.901 -226.246)" fill="#4cbac0"/>
  <path id="Path_1895" data-name="Path 1895" d="M226.832,324.579c.438.073,6.44-7.7,6.911-7.382s2.827,4.4,3.141,4.4,13.665,3.3,14.764,9.424-7.7,25.6-7.7,25.6-3.77,11.152-2.984,16.021a32.8,32.8,0,0,1-.314,11.152c-.314,1.257-1.414,2.67-1.1,3.3s-6.911-.785-9.9.942-16.335,2.984-15.55,1.1,1.257-9.267,3.456-17.121,7.853-26.388,6.911-27.644S225.889,324.422,226.832,324.579Z" transform="translate(-196.25 -223.496)" fill="#4cbac0"/>
  <path id="Path_1896" data-name="Path 1896" d="M293.771,350.814l2.042,1.885s2.356,4.084,2.042,5.969,6.6,30.314,3.77,31.257-9.581,5.655-10.367,6.911a13.945,13.945,0,0,1-3.927,4.084c-1.257.628-2.513,1.728-3.3,1.1s-2.513-13.508-1.257-13.979,2.513-1.885,3.77-1.885a2.254,2.254,0,0,0,2.042-2.356c0-1.1-.942-7.7-.942-7.7l-2.042-15.55Z" transform="translate(-240.257 -245.177)" fill="#4cbac0"/>
  <path id="Path_1897" data-name="Path 1897" d="M218.764,238.645c-.127.227-.172.491-.291.722-.541,1.049-2.082.814-3.194,1.211a2.66,2.66,0,0,0-1.717,2.255c-.031.423.041.85,0,1.272a21.508,21.508,0,0,1-.72,2.231c-.406,1.86.542,4.8,1.613,3.794.338-.317.76-.526,1.125-.811a17.054,17.054,0,0,0,2.2-2.84,1.1,1.1,0,0,1,.391-.331c.562-.239,1.063.4,1.507.819a2.634,2.634,0,0,0,3.54-.058,1.947,1.947,0,0,1,.5-.436,1.23,1.23,0,0,1,.693-.058,4.748,4.748,0,0,1,2.775,1.413,7.589,7.589,0,0,0,1.126,1.146,1.256,1.256,0,0,0,1.494.042,2.817,2.817,0,0,1,1.109,2.464c0,.942-.224,1.878-.169,2.819a2.548,2.548,0,0,0,1.364,2.3,3.282,3.282,0,0,1,1.451-2.17,10.2,10.2,0,0,0,1.828-1.064c1.011-.993.691-2.644.729-4.061.048-1.747.756-3.417.881-5.16a3.617,3.617,0,0,0-.579-2.494,4.663,4.663,0,0,0-1.51-1.118l-4.767-2.615a2.2,2.2,0,0,0-.707-.287c-.7-.108-1.308.455-1.974.7a4.631,4.631,0,0,1-1.732.18c-1.851-.043-2.371.264-3.615-.766a.973.973,0,0,0-.751-.214C220.617,237.633,219.171,237.919,218.764,238.645Z" transform="translate(-195.392 -172.134)" fill="#2f2e41"/>
</svg>
